:version 1.10
:name ASF
:units
  mass 1
  length 1
  angle deg
:documentation
  ASF file generated by Kaydara
:root
  axis xyz
  order  tx ty tz rx ry rz
  position 0 0 0
  orientation 0 0 0
:bonedata
  begin
    id 1
    name RightUpLegDummy
    direction -0.718183 -0.695806 0.00816078
    length 4.904
    axis 0 0 0 xyz
  end
  begin
    id 2
    name RightUpLeg
    direction 3.53373e-006 -0.995788 0.0916898
    length 17.4976
    axis -3.49089 -0.000906625 0.000286804 xyz
    dof rx ry rz
  end
  begin
    id 3
    name RightLeg
    direction 0.00371092 -0.995096 -0.0988419
    length 16.5821
    axis 3.68512 0.0193738 -0.131023 xyz
    dof rx ry rz
  end
  begin
    id 4
    name RightFoot
    direction 0.00079151 -0.46099 0.887405
    length 3.77069
    axis 4.81691e-005 -0.120479 -0.188788 xyz
    dof rx ry rz
  end
  begin
    id 5
    name RightToes
    direction 0 0 0
    length 0
    axis 0 0 0 xyz
    dof rx ry rz
  end
  begin
    id 6
    name SpineDummy
    direction 8.3039e-015 1 4.57515e-016
    length 4.6813
    axis 0 0 0 xyz
  end
  begin
    id 7
    name Spine
    direction -3.15643e-008 0.999988 0.00495137
    length 10.1015
    axis -0.001389 0.000121418 2.40972e-006 xyz
    dof rx ry rz
  end
  begin
    id 8
    name Spine1
    direction 0 0 0
    length 0
    axis -0.001389 0.000121451 1.30017e-006 xyz
    dof rx ry rz
  end
  begin
    id 9
    name HEadDummy
    direction -1.99912e-008 0.999999 0.00127422
    length 3.43865
    axis -0.001389 0.000121451 1.30017e-006 xyz
  end
  begin
    id 10
    name HEad
    direction 0 0 0
    length 0
    axis 0 0 0 xyz
    dof rx ry rz
  end
  begin
    id 11
    name LeftShoulder1Dummy
    direction 0.998891 -0.0402509 -0.0244456
    length 3.5433
    axis -0.001389 0.000121451 1.30017e-006 xyz
  end
  begin
    id 12
    name LeftShoulder1
    direction 0.99951 -0.000327763 0.0313091
    length 4.05031
    axis -0.001389 0.000121451 1.30017e-006 xyz
    dof rx ry rz
  end
  begin
    id 13
    name LeftArm
    direction 0.998561 -0.00100056 -0.0536182
    length 10.3537
    axis -23.1894 0.134784 0.967509 xyz
    dof rx ry rz
  end
  begin
    id 14
    name LeftForeArm
    direction 0.998903 0.00866432 0.046012
    length 8.70632
    axis -9.91835 -0.06569 -0.177794 xyz
    dof rx ry rz
  end
  begin
    id 15
    name LeftHand
    direction 0 0 0
    length 0
    axis 0 0 0 xyz
    dof rx ry rz
  end
  begin
    id 16
    name RightShoulderDummy
    direction -0.998891 -0.0402509 -0.0244414
    length 3.5433
    axis -0.001389 0.000121451 1.30017e-006 xyz
  end
  begin
    id 17
    name RightShoulder
    direction -0.99951 -0.000327807 0.0313133
    length 4.05031
    axis 0.215806 0.000203643 -0.0068026 xyz
    dof rx ry rz
  end
  begin
    id 18
    name RightArm
    direction -0.998573 -0.000999564 -0.053403
    length 10.3947
    axis -23.2009 -0.134239 -0.964101 xyz
    dof rx ry rz
  end
  begin
    id 19
    name RightForeArm
    direction -0.998898 0.00868028 0.0461306
    length 8.68355
    axis -9.92322 0.0658061 0.178868 xyz
    dof rx ry rz
  end
  begin
    id 20
    name RightHand
    direction 0 0 0
    length 0
    axis 0 0 0 xyz
    dof rx ry rz
  end
  begin
    id 21
    name LeftUpLegDummy
    direction 0.718183 -0.695806 0.00816078
    length 4.904
    axis 0 0 0 xyz
  end
  begin
    id 22
    name LeftUpLeg
    direction -6.81752e-006 -0.995793 0.0916337
    length 17.4976
    axis -3.48766 0.00143442 -0.000524262 xyz
    dof rx ry rz
  end
  begin
    id 23
    name LeftLeg
    direction -0.00601358 -0.995091 -0.0987824
    length 16.5821
    axis 3.68178 -0.00654042 -0.000285133 xyz
    dof rx ry rz
  end
  begin
    id 24
    name LeftFoot
    direction -0.00417578 -0.460984 0.887399
    length 3.77069
    axis 1.87233e-006 4.66016e-005 -8.6538e-006 xyz
    dof rx ry rz
  end
  begin
    id 25
    name LeftToes
    direction 0 0 0
    length 0
    axis 0 0 0 xyz
    dof rx ry rz
  end
:hierarchy
  begin
    root RightUpLegDummy SpineDummy LeftUpLegDummy
    RightUpLegDummy RightUpLeg
    RightUpLeg RightLeg
    RightLeg RightFoot
    RightFoot RightToes
    SpineDummy Spine
    Spine Spine1
    Spine1 HEadDummy LeftShoulder1Dummy RightShoulderDummy
    HEadDummy HEad
    LeftShoulder1Dummy LeftShoulder1
    LeftShoulder1 LeftArm
    LeftArm LeftForeArm
    LeftForeArm LeftHand
    RightShoulderDummy RightShoulder
    RightShoulder RightArm
    RightArm RightForeArm
    RightForeArm RightHand
    LeftUpLegDummy LeftUpLeg
    LeftUpLeg LeftLeg
    LeftLeg LeftFoot
    LeftFoot LeftToes
  end

:SAMPLES-PER-SECOND 30
:FULLY-SPECIFIED
:DEGREES
341
root  33.0328 38.9866 6.70998 -145.956 88.247 -149.775
RightUpLeg  -16.7177 -27.6153 -10.5763
RightLeg  18.3271 0.784168 0.433038
RightFoot  -0.124115 -0.905826 9.19656
RightToes  0.000481921 0.542163 -0.142578
Spine  24.7841 -3.34326 -16.1096
Spine1  -1.59882 -12.6449 32.8894
HEad  12.9657 22.5132 -15.5179
LeftShoulder1  2.03113 -8.0369 -10.1507
LeftArm  -32.0618 -48.2414 -25.4516
LeftForeArm  75.9784 -72.2689 -32.0028
LeftHand  -0.25398 0.0180481 5.50724
RightShoulder  5.3529 10.6219 31.9428
RightArm  2.75623 18.5134 46.9891
RightForeArm  -175.035 53.1504 167.731
RightHand  -0.0525339 -5.40402 12.5918
LeftUpLeg  -22.0009 13.4616 -0.334814
LeftLeg  28.3165 6.37632 4.0544
LeftFoot  -7.42289 0.037561 0.207174
LeftToes  1.06244e-005 4.65869e-005 -8.65518e-006
342
root  33.1354 39.2324 6.72209 -175.9 86.3131 179.896
RightUpLeg  -14.4689 -26.3667 -12.6417
RightLeg  15.7742 -3.0717 0.894458
RightFoot  1.06768 -0.980915 9.07348
RightToes  0.000481921 0.542163 -0.142578
Spine  23.4665 -2.40278 -12.3661
Spine1  0.480292 -10.6244 28.854
HEad  10.9808 18.086 -18.4962
LeftShoulder1  3.4375 -9.49119 -19.9665
LeftArm  -21.0465 -41.4576 -34.3447
LeftForeArm  179.249 -77.5536 -142.131
LeftHand  -0.25398 0.0180481 5.50724
RightShoulder  5.05519 10.1291 31.1328
RightArm  -2.86999 11.2813 42.6399
RightForeArm  -172.71 48.8372 169.601
RightHand  0.0504299 -4.58496 13.316
LeftUpLeg  -20.9817 12.6047 -1.29366
LeftLeg  25.2399 5.39064 3.11242
LeftFoot  -5.76231 0.00492341 0.605443
LeftToes  1.06244e-005 4.65869e-005 -8.65518e-006
343
root  33.211 39.5461 6.7607 178.964 83.0753 174.133
RightUpLeg  -11.3072 -21.6403 -15.3002
RightLeg  11.8921 -10.8936 1.93191
RightFoot  2.89298 -1.07279 8.736
RightToes  0.000481921 0.542163 -0.142578
Spine  22.1833 -1.86847 -5.87955
Spine1  2.08833 -7.41926 20.4844
HEad  10.6929 12.4126 -18.3887
LeftShoulder1  4.7961 -10.8298 -27.3754
LeftArm  -8.36073 -32.6843 -43.5501
LeftForeArm  -163.881 -67.8781 -159.658
LeftHand  -0.25398 0.0180481 5.50724
RightShoulder  4.84978 9.81482 30.4694
RightArm  -11.4797 8.98318 37.488
RightForeArm  -169.64 46.415 170.777
RightHand  0.0132376 -4.87047 18.3481
LeftUpLeg  -19.7791 12.8121 -2.42711
LeftLeg  20.933 2.61034 1.50644
LeftFoot  -3.45885 -0.0564395 1.11449
LeftToes  1.06244e-005 4.65869e-005 -8.65518e-006
344
root  33.1327 39.8199 6.82477 174.668 81.395 169.086
RightUpLeg  -9.9324 -17.5005 -16.6713
RightLeg  8.46458 -16.4889 2.40166
RightFoot  5.0585 -1.1443 8.17339
RightToes  0.000481921 0.542163 -0.142578
Spine  21.5024 -0.912461 2.98876
Spine1  3.08884 -1.94462 6.69129
HEad  10.9953 5.37096 -14.0742
LeftShoulder1  6.05946 -12.2856 -32.3156
LeftArm  0.992787 -22.1915 -48.2505
LeftForeArm  -165.812 -67.0941 -159.536
LeftHand  -0.25398 0.0180481 5.50724
RightShoulder  4.42088 9.20616 28.792
RightArm  -21.8935 14.0896 31.4145
RightForeArm  -175.099 51.8536 169.052
RightHand  -0.340774 -6.94884 22.1429
LeftUpLeg  -18.6921 15.3445 -3.69876
LeftLeg  16.5066 -0.811726 -0.479883
LeftFoot  -0.800591 -0.141942 1.59312
LeftToes  1.06244e-005 4.65869e-005 -8.65518e-006
345
root  32.8086 39.9665 6.92666 161.603 82.5912 155.822
RightUpLeg  -11.0647 -16.4008 -16.9984
RightLeg  7.41318 -15.9415 1.72395
RightFoot  6.83235 -1.11175 7.23659
RightToes  0.000481921 0.542163 -0.142578
Spine  22.9889 0.92754 11.9208
Spine1  3.47032 5.22868 -8.76887
HEad  11.0478 -1.66098 -9.23519
LeftShoulder1  7.38718 -14.5377 -34.9163
LeftArm  6.87976 -14.8022 -47.6628
LeftForeArm  -168.923 -68.8267 -157.379
LeftHand  -0.25398 0.0180481 5.50724
RightShoulder  3.28221 7.77609 22.774
RightArm  -32.9294 26.3839 25.6817
RightForeArm  153.7 71.2318 138.986
RightHand  -0.204339 -5.67218 16.6785
LeftUpLeg  -17.2408 15.9955 -3.68382
LeftLeg  13.0955 0.718736 -2.64865
LeftFoot  1.50605 -0.203986 1.7376
LeftToes  1.06244e-005 4.65869e-005 -8.65518e-006
346
root  32.3519 39.9623 7.11692 134.494 84.4507 128.858
RightUpLeg  -13.888 -16.5558 -16.8584
RightLeg  8.72454 -12.4393 0.487574
RightFoot  7.48286 -0.957159 6.07324
RightToes  0.000481921 0.542163 -0.142578
Spine  26.3934 2.67206 17.8239
Spine1  2.95415 11.4312 -20.8251
HEad  11.4317 -5.58119 -7.57611
LeftShoulder1  7.88288 -16.1676 -34.0099
LeftArm  11.4814 -12.7996 -47.5398
LeftForeArm  -168.938 -70.1985 -155.765
LeftHand  -0.25398 0.0180481 5.50724
RightShoulder  1.77845 5.74762 12.0556
RightArm  -45.1289 42.4358 18.0218
RightForeArm  44.961 62.3786 17.7088
RightHand  0.277857 2.39845 3.9407
LeftUpLeg  -16.1988 15.2589 -3.3766
LeftLeg  11.1141 4.86855 -4.0851
LeftFoot  2.80757 -0.199669 1.47143
LeftToes  1.06244e-005 4.65869e-005 -8.65518e-006
347
root  32.018 39.8502 7.42496 118.744 84.369 112.467
RightUpLeg  -17.2218 -17.7468 -16.1105
RightLeg  11.3704 -9.98861 -0.528261
RightFoot  6.72941 -0.756763 5.0419
RightToes  0.000481921 0.542163 -0.142578
Spine  28.6134 3.60836 20.1851
Spine1  1.8354 14.5246 -27.2987
HEad  11.9012 -5.8605 -8.53244
LeftShoulder1  7.4052 -16.0744 -31.762
LeftArm  15.2915 -13.5507 -48.9622
LeftForeArm  -164.859 -69.3068 -157.238
LeftHand  -0.25398 0.0180481 5.50724
RightShoulder  0.675005 3.69275 1.21067
RightArm  -55.9049 52.5973 9.09043
RightForeArm  44.3014 25.4401 1.61549
RightHand  -0.447155 7.54565 -4.85852
LeftUpLeg  -17.1622 15.3614 -3.85547
LeftLeg  10.8319 6.07595 -4.31192
LeftFoot  3.11241 -0.170756 1.19709
LeftToes  1.06244e-005 4.65869e-005 -8.65518e-006
348
root  31.9445 39.7187 7.82115 141.202 82.7798 133.594
RightUpLeg  -19.5987 -21.4156 -14.5035
RightLeg  14.4446 -9.24867 -1.23185
RightFoot  4.97563 -0.61294 4.51427
RightToes  0.000481921 0.542163 -0.142578
Spine  27.9258 3.91355 19.6474
Spine1  1.37671 14.4051 -27.2493
HEad  10.8857 -4.72925 -9.34501
LeftShoulder1  7.09374 -15.168 -31.9478
LeftArm  17.6532 -13.9251 -49.6034
LeftForeArm  -159.338 -66.0989 -161.04
LeftHand  -0.25398 0.0180481 5.50724
RightShoulder  0.36869 2.37092 -2.14505
RightArm  -55.2822 52.1874 8.38554
RightForeArm  46.2775 25.4174 2.4489
RightHand  -0.752682 8.53636 -6.8397
LeftUpLeg  -19.7083 15.3947 -4.47949
LeftLeg  11.7178 3.52535 -3.7188
LeftFoot  2.99976 -0.164946 1.16661
LeftToes  1.06244e-005 4.65869e-005 -8.65518e-006
349
root  32.0617 39.6478 8.26204 166.724 78.819 158.964
RightUpLeg  -19.5129 -27.556 -12.4304
RightLeg  16.9961 -8.15879 -1.91151
RightFoot  3.0893 -0.541117 4.44021
RightToes  0.000481921 0.542163 -0.142578
Spine  25.8729 3.53689 16.6996
Spine1  2.78751 12.2417 -22.1968
HEad  8.50627 -3.45443 -8.61136
LeftShoulder1  7.38141 -15.0213 -33.7894
LeftArm  16.8397 -13.5789 -49.1245
LeftForeArm  -157.309 -62.9011 -163.75
LeftHand  -0.25398 0.0180481 5.50724
RightShoulder  0.872383 3.26063 4.6086
RightArm  -48.6863 45.1039 14.1093
RightForeArm  50.1337 55.8265 16.3996
RightHand  -0.571256 6.35044 -5.71786
LeftUpLeg  -21.0555 13.9412 -3.99835
LeftLeg  12.7142 0.113723 -3.1051
LeftFoot  2.97764 -0.151064 1.05879
LeftToes  1.06244e-005 4.65869e-005 -8.65518e-006
350
root  32.2703 39.6811 8.72337 174.38 74.7332 168.267
RightUpLeg  -16.7938 -31.9047 -11.6524
RightLeg  18.1782 -7.60556 -2.44696
RightFoot  1.76097 -0.492405 4.38851
RightToes  0.000481921 0.542163 -0.142578
Spine  24.7086 2.60115 12.4289
Spine1  4.78957 9.38102 -16.8569
HEad  7.05843 -1.48872 -6.85719
LeftShoulder1  7.51681 -15.2463 -34.0316
LeftArm  12.8779 -13.895 -48.7168
LeftForeArm  -159.701 -61.3441 -164.583
LeftHand  -0.25398 0.0180481 5.50724
RightShoulder  2.22098 6.64919 15.0956
RightArm  -39.7386 36.3102 21.1576
RightForeArm  116.307 81.3221 89.5513
RightHand  0.074036 0.962368 1.27426
LeftUpLeg  -19.6582 11.5208 -2.27152
LeftLeg  12.7604 -1.58928 -2.92688
LeftFoot  3.25474 -0.0809412 0.480146
LeftToes  1.06244e-005 4.65869e-005 -8.65518e-006
351
root  32.5562 39.8094 9.14788 175.427 72.9006 171.13
RightUpLeg  -13.211 -31.4208 -12.1677
RightLeg  17.7409 -9.5371 -2.5802
RightFoot  1.09736 -0.444972 4.14966
RightToes  0.000481921 0.542163 -0.142578
Spine  23.4133 2.36871 8.17976
Spine1  6.96691 7.38865 -12.4928
HEad  7.62242 0.439293 -6.17515
LeftShoulder1  7.34896 -14.8088 -34.0788
LeftArm  8.36109 -16.3498 -47.9923
LeftForeArm  -164.455 -61.1942 -164.287
LeftHand  -0.25398 0.0180481 5.50724
RightShoulder  3.8804 9.77095 23.0534
RightArm  -31.1175 29.6668 28.8769
RightForeArm  -166.079 67.4043 160.757
RightHand  0.360403 -0.171445 7.61177
LeftUpLeg  -16.9319 9.25211 -0.255295
LeftLeg  11.3743 -1.27436 -3.03166
LeftFoot  3.83179 0.0424359 -0.491085
LeftToes  1.06244e-005 4.65869e-005 -8.65518e-006
